STARTFONT 2.1
FONT -Monotype-Century Gothic-Bold-I-Normal--14-140-75-75-P-76-iso8859-2
SIZE 14 75 75
FONTBOUNDINGBOX 22 18 -3 -3

STARTPROPERTIES 22
FOUNDRY "Monotype"
FAMILY_NAME "Century Gothic"
WEIGHT_NAME "Bold"
SLANT "I"
SETWIDTH_NAME "Normal"
ADD_STYLE_NAME ""
PIXEL_SIZE 14
POINT_SIZE 140
RESOLUTION_X 75
RESOLUTION_Y 75
SPACING "P"
AVERAGE_WIDTH 76
CHARSET_REGISTRY "iso8859"
CHARSET_ENCODING "2"
COPYRIGHT "Copyright (c) 1996 Monotype Typography Ltd."
CAP_HEIGHT 12
X_HEIGHT 9
WEIGHT 10
QUAD_WIDTH 9
DEFAULT_CHAR 160
FONT_DESCENT 3
FONT_ASCENT 15
ENDPROPERTIES

CHARS 191

STARTCHAR space
ENCODING 32
SWIDTH 280 0
DWIDTH 4 0
BBX 0 0 0 0
BITMAP
ENDCHAR

STARTCHAR exclam
ENCODING 33
SWIDTH 280 0
DWIDTH 4 0
BBX 4 11 1 0
BITMAP
30
30
30
30
60
60
60
60
00
C0
C0
ENDCHAR

STARTCHAR quotedbl
ENCODING 34
SWIDTH 360 0
DWIDTH 5 0
BBX 5 4 0 7
BITMAP
D8
D8
D8
50
ENDCHAR

STARTCHAR numbersign
ENCODING 35
SWIDTH 600 0
DWIDTH 9 0
BBX 9 11 0 0
BITMAP
1B00
1B00
1B00
7F80
3600
3600
FF00
6C00
6C00
6C00
6C00
ENDCHAR

STARTCHAR dollar
ENCODING 36
SWIDTH 560 0
DWIDTH 8 0
BBX 7 14 1 -2
BITMAP
18
3C
7E
66
60
70
38
1C
0C
CC
FC
78
30
30
ENDCHAR

STARTCHAR percent
ENCODING 37
SWIDTH 860 0
DWIDTH 13 0
BBX 12 13 1 -1
BITMAP
00E0
7FC0
D880
D980
DB00
7200
0600
0CF0
09B0
19B0
31B0
20E0
6000
ENDCHAR

STARTCHAR ampersand
ENCODING 38
SWIDTH 680 0
DWIDTH 10 0
BBX 9 11 1 0
BITMAP
1C00
3E00
3600
3600
1C00
3800
7D00
EF00
CE00
FF00
7B80
ENDCHAR

STARTCHAR quoteright
ENCODING 39
SWIDTH 280 0
DWIDTH 4 0
BBX 3 4 1 7
BITMAP
60
60
60
C0
ENDCHAR

STARTCHAR parenleft
ENCODING 40
SWIDTH 380 0
DWIDTH 6 0
BBX 5 15 2 -3
BITMAP
18
30
30
60
60
C0
C0
C0
C0
C0
C0
C0
C0
60
60
ENDCHAR

STARTCHAR parenright
ENCODING 41
SWIDTH 380 0
DWIDTH 6 0
BBX 5 15 0 -3
BITMAP
30
30
18
18
18
18
18
18
18
18
30
30
60
60
C0
ENDCHAR

STARTCHAR asterisk
ENCODING 42
SWIDTH 440 0
DWIDTH 7 0
BBX 5 6 1 5
BITMAP
30
B8
70
70
E8
60
ENDCHAR

STARTCHAR plus
ENCODING 43
SWIDTH 600 0
DWIDTH 9 0
BBX 8 8 1 1
BITMAP
18
18
18
FF
FF
18
18
18
ENDCHAR

STARTCHAR comma
ENCODING 44
SWIDTH 280 0
DWIDTH 4 0
BBX 3 4 0 -2
BITMAP
60
60
C0
80
ENDCHAR

STARTCHAR minus
ENCODING 45
SWIDTH 600 0
DWIDTH 9 0
BBX 7 2 1 4
BITMAP
FE
FE
ENDCHAR

STARTCHAR period
ENCODING 46
SWIDTH 280 0
DWIDTH 4 0
BBX 2 2 1 0
BITMAP
C0
C0
ENDCHAR

STARTCHAR slash
ENCODING 47
SWIDTH 460 0
DWIDTH 7 0
BBX 7 14 0 -2
BITMAP
06
04
0C
08
08
18
10
10
30
20
20
60
40
C0
ENDCHAR

STARTCHAR zero
ENCODING 48
SWIDTH 560 0
DWIDTH 8 0
BBX 7 11 1 0
BITMAP
18
3C
66
66
C6
C6
C6
CC
CC
78
30
ENDCHAR

STARTCHAR one
ENCODING 49
SWIDTH 560 0
DWIDTH 8 0
BBX 4 11 2 0
BITMAP
F0
F0
30
30
60
60
60
60
C0
C0
C0
ENDCHAR

STARTCHAR two
ENCODING 50
SWIDTH 560 0
DWIDTH 8 0
BBX 7 11 1 0
BITMAP
3C
7E
66
66
0C
0C
18
30
60
FC
FC
ENDCHAR

STARTCHAR three
ENCODING 51
SWIDTH 560 0
DWIDTH 8 0
BBX 7 11 1 0
BITMAP
3C
7E
66
06
1C
1C
06
C6
CE
7C
38
ENDCHAR

STARTCHAR four
ENCODING 52
SWIDTH 560 0
DWIDTH 8 0
BBX 8 11 0 0
BITMAP
03
07
0F
1B
33
36
66
FF
FF
0C
0C
ENDCHAR

STARTCHAR five
ENCODING 53
SWIDTH 560 0
DWIDTH 8 0
BBX 8 11 0 0
BITMAP
1F
3F
30
30
7C
7E
06
06
CE
FC
78
ENDCHAR

STARTCHAR six
ENCODING 54
SWIDTH 560 0
DWIDTH 8 0
BBX 7 11 1 0
BITMAP
0C
18
18
30
70
7C
CE
C6
C6
7C
38
ENDCHAR

STARTCHAR seven
ENCODING 55
SWIDTH 560 0
DWIDTH 8 0
BBX 6 11 1 0
BITMAP
FC
FC
0C
18
18
30
30
60
60
C0
C0
ENDCHAR

STARTCHAR eight
ENCODING 56
SWIDTH 560 0
DWIDTH 8 0
BBX 7 11 1 0
BITMAP
3C
7E
66
66
3C
78
CC
CC
CC
FC
78
ENDCHAR

STARTCHAR nine
ENCODING 57
SWIDTH 560 0
DWIDTH 8 0
BBX 7 11 1 0
BITMAP
38
7C
C6
C6
E6
7C
1C
18
30
30
60
ENDCHAR

STARTCHAR colon
ENCODING 58
SWIDTH 280 0
DWIDTH 4 0
BBX 3 8 1 0
BITMAP
60
60
00
00
00
00
C0
C0
ENDCHAR

STARTCHAR semicolon
ENCODING 59
SWIDTH 280 0
DWIDTH 4 0
BBX 4 10 0 -2
BITMAP
30
30
00
00
00
00
60
60
C0
80
ENDCHAR

STARTCHAR less
ENCODING 60
SWIDTH 600 0
DWIDTH 9 0
BBX 7 9 1 1
BITMAP
02
0E
3C
F0
C0
F0
3C
0E
02
ENDCHAR

STARTCHAR equal
ENCODING 61
SWIDTH 600 0
DWIDTH 9 0
BBX 7 5 1 3
BITMAP
FE
FE
00
FE
FE
ENDCHAR

STARTCHAR greater
ENCODING 62
SWIDTH 600 0
DWIDTH 9 0
BBX 7 9 1 1
BITMAP
80
E0
78
1E
06
1E
78
E0
80
ENDCHAR

STARTCHAR question
ENCODING 63
SWIDTH 560 0
DWIDTH 8 0
BBX 7 11 1 0
BITMAP
38
FE
C6
06
1C
38
60
60
00
C0
C0
ENDCHAR

STARTCHAR at
ENCODING 64
SWIDTH 740 0
DWIDTH 11 0
BBX 11 11 0 0
BITMAP
1F80
70C0
4DE0
DFA0
B3A0
B1A0
B3A0
DFC0
4D80
70C0
1F80
ENDCHAR

STARTCHAR A
ENCODING 65
SWIDTH 740 0
DWIDTH 11 0
BBX 10 11 0 0
BITMAP
0300
0700
0F00
0D80
1980
1980
3180
3FC0
7FC0
E0C0
C0C0
ENDCHAR

STARTCHAR B
ENCODING 66
SWIDTH 580 0
DWIDTH 9 0
BBX 9 11 0 0
BITMAP
3F00
3F80
3180
6180
7F00
7E00
6300
6300
C300
FE00
FC00
ENDCHAR

STARTCHAR C
ENCODING 67
SWIDTH 780 0
DWIDTH 12 0
BBX 11 11 1 0
BITMAP
0F80
3FE0
7060
6000
C000
C000
C000
6000
70C0
3FC0
0F00
ENDCHAR

STARTCHAR D
ENCODING 68
SWIDTH 700 0
DWIDTH 10 0
BBX 10 11 0 0
BITMAP
3E00
3F80
3180
60C0
60C0
60C0
60C0
6180
C380
FF00
FC00
ENDCHAR

STARTCHAR E
ENCODING 69
SWIDTH 520 0
DWIDTH 8 0
BBX 8 11 0 0
BITMAP
3F
3F
30
60
7E
7E
60
60
C0
FC
FC
ENDCHAR

STARTCHAR F
ENCODING 70
SWIDTH 480 0
DWIDTH 7 0
BBX 8 11 0 0
BITMAP
3F
3F
30
60
7E
7E
60
60
C0
C0
C0
ENDCHAR

STARTCHAR G
ENCODING 71
SWIDTH 840 0
DWIDTH 13 0
BBX 11 11 1 0
BITMAP
0F80
3FE0
7060
6000
C000
C3E0
C3E0
C060
60C0
7FC0
1F00
ENDCHAR

STARTCHAR H
ENCODING 72
SWIDTH 680 0
DWIDTH 10 0
BBX 10 11 0 0
BITMAP
30C0
30C0
30C0
6180
7F80
7F80
6180
6180
C300
C300
C300
ENDCHAR

STARTCHAR I
ENCODING 73
SWIDTH 280 0
DWIDTH 4 0
BBX 4 11 0 0
BITMAP
30
30
30
60
60
60
60
60
C0
C0
C0
ENDCHAR

STARTCHAR J
ENCODING 74
SWIDTH 480 0
DWIDTH 7 0
BBX 8 11 -1 0
BITMAP
03
03
03
06
06
06
06
0C
CC
FC
78
ENDCHAR

STARTCHAR K
ENCODING 75
SWIDTH 620 0
DWIDTH 9 0
BBX 9 11 0 0
BITMAP
3180
3300
3600
6C00
7800
7800
6C00
6C00
C600
C300
C300
ENDCHAR

STARTCHAR L
ENCODING 76
SWIDTH 440 0
DWIDTH 7 0
BBX 6 11 0 0
BITMAP
30
30
30
60
60
60
60
C0
C0
FC
FC
ENDCHAR

STARTCHAR M
ENCODING 77
SWIDTH 900 0
DWIDTH 13 0
BBX 12 11 0 0
BITMAP
1830
1830
3870
38F0
3CF0
6DF0
6DB0
67B0
6730
C630
C630
ENDCHAR

STARTCHAR N
ENCODING 78
SWIDTH 740 0
DWIDTH 11 0
BBX 11 11 0 0
BITMAP
3060
3060
3860
6CC0
6CC0
66C0
66C0
63C0
C380
C180
C180
ENDCHAR

STARTCHAR O
ENCODING 79
SWIDTH 840 0
DWIDTH 13 0
BBX 11 11 1 0
BITMAP
0F00
3FC0
70C0
6060
C060
C060
C060
C0C0
61C0
7F80
1E00
ENDCHAR

STARTCHAR P
ENCODING 80
SWIDTH 560 0
DWIDTH 8 0
BBX 8 11 0 0
BITMAP
3E
3F
33
63
7E
7C
60
60
C0
C0
C0
ENDCHAR

STARTCHAR Q
ENCODING 81
SWIDTH 840 0
DWIDTH 13 0
BBX 11 11 1 0
BITMAP
0F00
3FC0
70C0
6060
C060
C060
C660
C360
61C0
7FC0
1EE0
ENDCHAR

STARTCHAR R
ENCODING 82
SWIDTH 580 0
DWIDTH 9 0
BBX 9 11 0 0
BITMAP
3F00
3F80
3180
6180
7F00
7E00
6C00
6C00
C600
C600
C300
ENDCHAR

STARTCHAR S
ENCODING 83
SWIDTH 520 0
DWIDTH 7 0
BBX 7 11 0 0
BITMAP
3C
7E
66
60
70
38
1C
0C
CC
FC
78
ENDCHAR

STARTCHAR T
ENCODING 84
SWIDTH 420 0
DWIDTH 6 0
BBX 6 11 1 0
BITMAP
FC
FC
30
30
30
60
60
60
C0
C0
C0
ENDCHAR

STARTCHAR U
ENCODING 85
SWIDTH 640 0
DWIDTH 10 0
BBX 10 11 0 0
BITMAP
30C0
30C0
30C0
6180
6180
6180
6180
C300
C700
FE00
7C00
ENDCHAR

STARTCHAR V
ENCODING 86
SWIDTH 700 0
DWIDTH 10 0
BBX 10 11 1 0
BITMAP
C0C0
C0C0
C180
C180
6300
6300
6600
3600
3C00
3800
3800
ENDCHAR

STARTCHAR W
ENCODING 87
SWIDTH 900 0
DWIDTH 13 0
BBX 13 11 1 0
BITMAP
C618
C618
CE30
DE30
DB30
FB60
F360
F1C0
E1C0
C1C0
C180
ENDCHAR

STARTCHAR X
ENCODING 88
SWIDTH 680 0
DWIDTH 10 0
BBX 10 11 0 0
BITMAP
60C0
31C0
3B80
1F00
0E00
0C00
1E00
3E00
7300
E300
C180
ENDCHAR

STARTCHAR Y
ENCODING 89
SWIDTH 620 0
DWIDTH 9 0
BBX 9 11 1 0
BITMAP
C180
C300
C600
6C00
7C00
3800
3000
3000
6000
6000
6000
ENDCHAR

STARTCHAR Z
ENCODING 90
SWIDTH 500 0
DWIDTH 7 0
BBX 7 11 0 0
BITMAP
7E
7E
0C
18
18
30
30
60
60
FC
FC
ENDCHAR

STARTCHAR bracketleft
ENCODING 91
SWIDTH 320 0
DWIDTH 5 0
BBX 7 14 0 -3
BITMAP
1E
1E
18
18
30
30
30
30
60
60
60
C0
F8
F8
ENDCHAR

STARTCHAR backslash
ENCODING 92
SWIDTH 640 0
DWIDTH 10 0
BBX 7 14 2 -2
BITMAP
C0
40
60
20
20
30
10
10
18
08
08
0C
04
06
ENDCHAR

STARTCHAR bracketright
ENCODING 93
SWIDTH 320 0
DWIDTH 5 0
BBX 7 14 -1 -3
BITMAP
3E
3E
06
0C
0C
0C
18
18
18
18
30
30
F0
F0
ENDCHAR

STARTCHAR asciicircum
ENCODING 94
SWIDTH 600 0
DWIDTH 9 0
BBX 7 8 1 3
BITMAP
10
38
38
6C
6C
6C
C6
C6
ENDCHAR

STARTCHAR underscore
ENCODING 95
SWIDTH 500 0
DWIDTH 8 0
BBX 8 1 0 -2
BITMAP
FF
ENDCHAR

STARTCHAR quoteleft
ENCODING 96
SWIDTH 280 0
DWIDTH 4 0
BBX 3 4 1 7
BITMAP
60
C0
C0
C0
ENDCHAR

STARTCHAR a
ENCODING 97
SWIDTH 660 0
DWIDTH 10 0
BBX 9 8 1 0
BITMAP
1D80
7F80
6380
C180
C300
E700
7F00
3B00
ENDCHAR

STARTCHAR b
ENCODING 98
SWIDTH 660 0
DWIDTH 10 0
BBX 9 11 1 0
BITMAP
3000
3000
3000
6E00
7F00
7380
6180
C180
E300
FF00
DC00
ENDCHAR

STARTCHAR c
ENCODING 99
SWIDTH 640 0
DWIDTH 9 0
BBX 8 8 1 0
BITMAP
1E
7F
63
C0
C0
E6
7E
38
ENDCHAR

STARTCHAR d
ENCODING 100
SWIDTH 660 0
DWIDTH 10 0
BBX 10 11 1 0
BITMAP
00C0
00C0
00C0
1D80
7F80
6380
C180
C300
E700
7F00
3B00
ENDCHAR

STARTCHAR e
ENCODING 101
SWIDTH 640 0
DWIDTH 9 0
BBX 8 8 1 0
BITMAP
1C
7E
63
FF
C0
E6
7E
3C
ENDCHAR

STARTCHAR f
ENCODING 102
SWIDTH 280 0
DWIDTH 4 0
BBX 6 11 1 0
BITMAP
1C
3C
30
F8
F8
60
60
C0
C0
C0
C0
ENDCHAR

STARTCHAR g
ENCODING 103
SWIDTH 660 0
DWIDTH 10 0
BBX 9 11 1 -3
BITMAP
1D80
7F80
6380
C180
C300
E300
7F00
3B00
C600
FE00
3800
ENDCHAR

STARTCHAR h
ENCODING 104
SWIDTH 600 0
DWIDTH 9 0
BBX 8 11 1 0
BITMAP
30
30
30
6E
7F
73
63
66
C6
C6
C6
ENDCHAR

STARTCHAR i
ENCODING 105
SWIDTH 240 0
DWIDTH 4 0
BBX 4 11 1 0
BITMAP
30
30
00
60
60
60
60
C0
C0
C0
C0
ENDCHAR

STARTCHAR j
ENCODING 106
SWIDTH 260 0
DWIDTH 4 0
BBX 6 14 -1 -3
BITMAP
0C
0C
00
18
18
18
18
30
30
30
30
60
E0
C0
ENDCHAR

STARTCHAR k
ENCODING 107
SWIDTH 580 0
DWIDTH 9 0
BBX 9 11 1 0
BITMAP
3000
3000
3000
6380
6600
6C00
7800
6C00
CC00
C600
C300
ENDCHAR

STARTCHAR l
ENCODING 108
SWIDTH 240 0
DWIDTH 4 0
BBX 4 11 1 0
BITMAP
30
30
30
60
60
60
60
60
C0
C0
C0
ENDCHAR

STARTCHAR m
ENCODING 109
SWIDTH 940 0
DWIDTH 14 0
BBX 13 8 1 0
BITMAP
6E70
7FF8
7398
6318
C630
C630
C630
C630
ENDCHAR

STARTCHAR n
ENCODING 110
SWIDTH 600 0
DWIDTH 9 0
BBX 8 8 1 0
BITMAP
6E
7F
73
63
C6
C6
C6
C6
ENDCHAR

STARTCHAR o
ENCODING 111
SWIDTH 640 0
DWIDTH 9 0
BBX 8 8 1 0
BITMAP
1C
7E
63
C3
C3
C6
7E
38
ENDCHAR

STARTCHAR p
ENCODING 112
SWIDTH 660 0
DWIDTH 10 0
BBX 10 11 0 -3
BITMAP
3700
3F80
39C0
30C0
60C0
7180
7F80
6E00
C000
C000
C000
ENDCHAR

STARTCHAR q
ENCODING 113
SWIDTH 660 0
DWIDTH 10 0
BBX 9 11 1 -3
BITMAP
1D80
7F80
6380
C180
C300
E700
7F00
3B00
0600
0600
0600
ENDCHAR

STARTCHAR r
ENCODING 114
SWIDTH 320 0
DWIDTH 5 0
BBX 5 8 1 0
BITMAP
68
78
70
60
C0
C0
C0
C0
ENDCHAR

STARTCHAR s
ENCODING 115
SWIDTH 440 0
DWIDTH 7 0
BBX 7 8 1 0
BITMAP
3C
7E
66
30
18
CC
FC
78
ENDCHAR

STARTCHAR t
ENCODING 116
SWIDTH 300 0
DWIDTH 5 0
BBX 5 11 1 0
BITMAP
30
30
30
F8
F8
60
60
C0
C0
C0
C0
ENDCHAR

STARTCHAR u
ENCODING 117
SWIDTH 600 0
DWIDTH 9 0
BBX 8 8 1 0
BITMAP
63
63
63
C3
C6
C6
FC
78
ENDCHAR

STARTCHAR v
ENCODING 118
SWIDTH 560 0
DWIDTH 8 0
BBX 8 8 1 0
BITMAP
C3
C3
66
66
6C
3C
38
30
ENDCHAR

STARTCHAR w
ENCODING 119
SWIDTH 800 0
DWIDTH 12 0
BBX 11 8 1 0
BITMAP
C460
CC60
CCC0
DCC0
D580
7780
6300
6300
ENDCHAR

STARTCHAR x
ENCODING 120
SWIDTH 560 0
DWIDTH 7 0
BBX 8 8 0 0
BITMAP
63
66
3C
18
18
3C
66
C6
ENDCHAR

STARTCHAR y
ENCODING 121
SWIDTH 580 0
DWIDTH 9 0
BBX 8 11 1 -3
BITMAP
C3
C3
66
66
6C
38
30
30
60
60
C0
ENDCHAR

STARTCHAR z
ENCODING 122
SWIDTH 460 0
DWIDTH 8 0
BBX 7 8 1 0
BITMAP
7E
7E
0C
18
30
60
FC
FC
ENDCHAR

STARTCHAR braceleft
ENCODING 123
SWIDTH 340 0
DWIDTH 5 0
BBX 5 14 0 -3
BITMAP
18
38
30
30
30
60
C0
E0
60
60
60
60
70
30
ENDCHAR

STARTCHAR bar
ENCODING 124
SWIDTH 600 0
DWIDTH 9 0
BBX 1 14 4 -3
BITMAP
80
80
80
80
80
80
80
80
80
80
80
80
80
80
ENDCHAR

STARTCHAR braceright
ENCODING 125
SWIDTH 340 0
DWIDTH 5 0
BBX 5 14 0 -3
BITMAP
60
70
30
30
30
30
38
18
30
60
60
60
E0
C0
ENDCHAR

STARTCHAR asciitilde
ENCODING 126
SWIDTH 600 0
DWIDTH 9 0
BBX 7 3 1 4
BITMAP
72
FE
9C
ENDCHAR

STARTCHAR space
ENCODING 160
SWIDTH 280 0
DWIDTH 5 0
BBX 0 0 0 0
BITMAP
ENDCHAR

STARTCHAR Aogonek
ENCODING 161
SWIDTH 740 0
DWIDTH 11 0
BBX 11 14 0 -3
BITMAP
0300
0700
0F00
0D80
1980
1980
3180
3FC0
7FC0
E0C0
C0C0
00C0
00E0
0060
ENDCHAR

STARTCHAR breve
ENCODING 162
SWIDTH 480 0
DWIDTH 7 0
BBX 6 2 1 10
BITMAP
CC
78
ENDCHAR

STARTCHAR Lslash
ENCODING 163
SWIDTH 480 0
DWIDTH 7 0
BBX 7 11 -1 0
BITMAP
18
18
1A
36
3C
38
30
60
E0
FE
7E
ENDCHAR

STARTCHAR currency
ENCODING 164
SWIDTH 600 0
DWIDTH 9 0
BBX 8 7 1 2
BITMAP
BD
66
C3
C3
C3
66
BD
ENDCHAR

STARTCHAR Lcaron
ENCODING 165
SWIDTH 440 0
DWIDTH 7 0
BBX 7 11 0 0
BITMAP
36
36
3C
60
60
60
60
C0
C0
FC
FC
ENDCHAR

STARTCHAR Sacute
ENCODING 166
SWIDTH 520 0
DWIDTH 7 0
BBX 7 15 0 0
BITMAP
0E
0C
18
00
3C
7E
66
60
70
38
1C
0C
CC
FC
78
ENDCHAR

STARTCHAR section
ENCODING 167
SWIDTH 560 0
DWIDTH 8 0
BBX 7 15 1 -3
BITMAP
3C
7E
66
70
38
7C
CE
C6
E6
7C
38
1C
CC
FC
78
ENDCHAR

STARTCHAR dieresis
ENCODING 168
SWIDTH 500 0
DWIDTH 8 0
BBX 6 2 1 9
BITMAP
CC
CC
ENDCHAR

STARTCHAR Scaron
ENCODING 169
SWIDTH 520 0
DWIDTH 7 0
BBX 7 15 0 0
BITMAP
66
3C
18
00
3C
7E
66
60
70
38
1C
0C
CC
FC
78
ENDCHAR

STARTCHAR Scommaaccent
ENCODING 170
SWIDTH 520 0
DWIDTH 7 0
BBX 7 14 0 -3
BITMAP
3C
7E
66
60
70
38
1C
0C
CC
FC
78
00
30
60
ENDCHAR

STARTCHAR Tcaron
ENCODING 171
SWIDTH 420 0
DWIDTH 6 0
BBX 7 15 1 0
BITMAP
66
3C
18
00
FC
FC
30
30
30
60
60
60
C0
C0
C0
ENDCHAR

STARTCHAR Zacute
ENCODING 172
SWIDTH 500 0
DWIDTH 7 0
BBX 8 15 0 0
BITMAP
07
06
0C
00
7E
7E
0C
18
18
30
30
60
60
FC
FC
ENDCHAR

STARTCHAR hyphen
ENCODING 173
SWIDTH 420 0
DWIDTH 6 0
BBX 4 2 1 3
BITMAP
F0
F0
ENDCHAR

STARTCHAR Zcaron
ENCODING 174
SWIDTH 500 0
DWIDTH 7 0
BBX 8 15 0 0
BITMAP
33
1E
0C
00
7E
7E
0C
18
18
30
30
60
60
FC
FC
ENDCHAR

STARTCHAR Zdotaccent
ENCODING 175
SWIDTH 500 0
DWIDTH 7 0
BBX 7 14 0 0
BITMAP
18
18
00
7E
7E
0C
18
18
30
30
60
60
FC
FC
ENDCHAR

STARTCHAR degree
ENCODING 176
SWIDTH 400 0
DWIDTH 6 0
BBX 5 5 1 6
BITMAP
70
88
88
88
70
ENDCHAR

STARTCHAR aogonek
ENCODING 177
SWIDTH 660 0
DWIDTH 10 0
BBX 9 11 1 -3
BITMAP
1D80
7F80
6380
C180
C300
E700
7F00
3B00
0600
0600
0300
ENDCHAR

STARTCHAR ogonek
ENCODING 178
SWIDTH 340 0
DWIDTH 5 0
BBX 3 4 1 -3
BITMAP
60
C0
C0
60
ENDCHAR

STARTCHAR lslash
ENCODING 179
SWIDTH 320 0
DWIDTH 4 0
BBX 5 11 1 0
BITMAP
30
30
30
68
70
60
E0
60
C0
C0
C0
ENDCHAR

STARTCHAR acute
ENCODING 180
SWIDTH 420 0
DWIDTH 6 0
BBX 4 3 2 9
BITMAP
70
60
C0
ENDCHAR

STARTCHAR lcaron
ENCODING 181
SWIDTH 289 0
DWIDTH 6 0
BBX 7 11 1 0
BITMAP
36
36
3C
60
60
60
60
60
C0
C0
C0
ENDCHAR

STARTCHAR sacute
ENCODING 182
SWIDTH 440 0
DWIDTH 7 0
BBX 7 12 1 0
BITMAP
1C
18
30
00
3C
7E
66
30
18
CC
FC
78
ENDCHAR

STARTCHAR caron
ENCODING 183
SWIDTH 540 0
DWIDTH 8 0
BBX 6 3 2 8
BITMAP
CC
78
30
ENDCHAR

STARTCHAR commaaccent
ENCODING 184
SWIDTH 333 0
DWIDTH 5 0
BBX 3 2 1 -3
BITMAP
60
C0
ENDCHAR

STARTCHAR scaron
ENCODING 185
SWIDTH 440 0
DWIDTH 7 0
BBX 7 12 1 0
BITMAP
66
3C
18
00
3C
7E
66
30
18
CC
FC
78
ENDCHAR

STARTCHAR scommaaccent
ENCODING 186
SWIDTH 440 0
DWIDTH 7 0
BBX 7 11 1 -3
BITMAP
3C
7E
66
30
18
CC
FC
78
00
30
60
ENDCHAR

STARTCHAR tcaron
ENCODING 187
SWIDTH 318 0
DWIDTH 5 0
BBX 7 11 1 0
BITMAP
36
36
3C
F8
F8
60
60
C0
C0
C0
C0
ENDCHAR

STARTCHAR zacute
ENCODING 188
SWIDTH 460 0
DWIDTH 8 0
BBX 7 12 1 0
BITMAP
1C
18
30
00
7E
7E
0C
18
30
60
FC
FC
ENDCHAR

STARTCHAR hungarumlaut
ENCODING 189
SWIDTH 700 0
DWIDTH 10 0
BBX 8 3 2 9
BITMAP
77
66
CC
ENDCHAR

STARTCHAR zcaron
ENCODING 190
SWIDTH 460 0
DWIDTH 8 0
BBX 7 12 1 0
BITMAP
66
3C
18
00
7E
7E
0C
18
30
60
FC
FC
ENDCHAR

STARTCHAR zdotaccent
ENCODING 191
SWIDTH 460 0
DWIDTH 8 0
BBX 7 11 1 0
BITMAP
18
18
00
7E
7E
0C
18
30
60
FC
FC
ENDCHAR

STARTCHAR Racute
ENCODING 192
SWIDTH 580 0
DWIDTH 9 0
BBX 9 15 0 0
BITMAP
0700
0600
0C00
0000
3F00
3F80
3180
6180
7F00
7E00
6C00
6C00
C600
C600
C300
ENDCHAR

STARTCHAR Aacute
ENCODING 193
SWIDTH 740 0
DWIDTH 11 0
BBX 10 15 0 0
BITMAP
0380
0300
0600
0000
0300
0700
0F00
0D80
1980
1980
3180
3FC0
7FC0
E0C0
C0C0
ENDCHAR

STARTCHAR Acircumflex
ENCODING 194
SWIDTH 740 0
DWIDTH 11 0
BBX 10 15 0 0
BITMAP
0600
0F00
1980
0000
0300
0700
0F00
0D80
1980
1980
3180
3FC0
7FC0
E0C0
C0C0
ENDCHAR

STARTCHAR Abreve
ENCODING 195
SWIDTH 740 0
DWIDTH 11 0
BBX 10 14 0 0
BITMAP
0CC0
0780
0000
0300
0700
0F00
0D80
1980
1980
3180
3FC0
7FC0
E0C0
C0C0
ENDCHAR

STARTCHAR Adieresis
ENCODING 196
SWIDTH 740 0
DWIDTH 11 0
BBX 10 14 0 0
BITMAP
1980
1980
0000
0300
0700
0F00
0D80
1980
1980
3180
3FC0
7FC0
E0C0
C0C0
ENDCHAR

STARTCHAR Lacute
ENCODING 197
SWIDTH 440 0
DWIDTH 7 0
BBX 7 15 0 0
BITMAP
0E
0C
18
00
30
30
30
60
60
60
60
C0
C0
FC
FC
ENDCHAR

STARTCHAR Cacute
ENCODING 198
SWIDTH 780 0
DWIDTH 12 0
BBX 11 15 1 0
BITMAP
0380
0300
0600
0000
0F80
3FE0
7060
6000
C000
C000
C000
6000
70C0
3FC0
0F00
ENDCHAR

STARTCHAR Ccedilla
ENCODING 199
SWIDTH 780 0
DWIDTH 12 0
BBX 11 14 1 -3
BITMAP
0FC0
3FE0
7060
6000
C000
C000
C000
6000
70C0
3FC0
0F00
0C00
0600
1C00
ENDCHAR

STARTCHAR Ccaron
ENCODING 200
SWIDTH 780 0
DWIDTH 12 0
BBX 11 15 1 0
BITMAP
0CC0
0780
0300
0000
0F80
3FE0
7060
6000
C000
C000
C000
6000
70C0
3FC0
0F00
ENDCHAR

STARTCHAR Eacute
ENCODING 201
SWIDTH 520 0
DWIDTH 8 0
BBX 8 15 0 0
BITMAP
07
06
0C
00
3F
3F
30
60
7E
7E
60
60
C0
FC
FC
ENDCHAR

STARTCHAR Eogonek
ENCODING 202
SWIDTH 520 0
DWIDTH 8 0
BBX 8 14 0 -3
BITMAP
3F
3F
30
60
7E
7E
60
60
C0
FC
FC
18
1C
0C
ENDCHAR

STARTCHAR Edieresis
ENCODING 203
SWIDTH 520 0
DWIDTH 8 0
BBX 8 14 0 0
BITMAP
33
33
00
3F
3F
30
60
7E
7E
60
60
C0
FC
FC
ENDCHAR

STARTCHAR Ecaron
ENCODING 204
SWIDTH 520 0
DWIDTH 8 0
BBX 9 15 0 0
BITMAP
1980
0F00
0600
0000
3F00
3F00
3000
6000
7E00
7E00
6000
6000
C000
FC00
FC00
ENDCHAR

STARTCHAR Iacute
ENCODING 205
SWIDTH 280 0
DWIDTH 4 0
BBX 6 15 0 0
BITMAP
1C
18
30
00
30
30
30
60
60
60
60
60
C0
C0
C0
ENDCHAR

STARTCHAR Icircumflex
ENCODING 206
SWIDTH 280 0
DWIDTH 4 0
BBX 7 15 0 0
BITMAP
18
3C
66
00
30
30
30
60
60
60
60
60
C0
C0
C0
ENDCHAR

STARTCHAR Dcaron
ENCODING 207
SWIDTH 700 0
DWIDTH 10 0
BBX 10 15 0 0
BITMAP
3300
1E00
0C00
0000
3E00
3F80
3180
60C0
60C0
60C0
60C0
6180
C380
FF00
FC00
ENDCHAR

STARTCHAR Dcroat
ENCODING 208
SWIDTH 742 0
DWIDTH 10 0
BBX 10 11 0 0
BITMAP
3E00
3F80
3180
60C0
F8C0
F8C0
60C0
6180
C380
FF00
FC00
ENDCHAR

STARTCHAR Nacute
ENCODING 209
SWIDTH 740 0
DWIDTH 11 0
BBX 11 15 0 0
BITMAP
01C0
0180
0300
0000
3060
3060
3860
6CC0
6CC0
66C0
66C0
63C0
C380
C180
C180
ENDCHAR

STARTCHAR Ncaron
ENCODING 210
SWIDTH 740 0
DWIDTH 11 0
BBX 11 15 0 0
BITMAP
0CC0
0780
0300
0000
3060
3060
3860
6CC0
6CC0
66C0
66C0
63C0
C380
C180
C180
ENDCHAR

STARTCHAR Oacute
ENCODING 211
SWIDTH 840 0
DWIDTH 13 0
BBX 11 15 1 0
BITMAP
0380
0300
0600
0000
0F00
3FC0
70C0
6060
C060
C060
C060
C0C0
61C0
7F80
1E00
ENDCHAR

STARTCHAR Ocircumflex
ENCODING 212
SWIDTH 840 0
DWIDTH 13 0
BBX 11 15 1 0
BITMAP
0300
0780
0CC0
0000
0F00
3FC0
70C0
6060
C060
C060
C060
C0C0
61C0
7F80
1E00
ENDCHAR

STARTCHAR Ohungarumlaut
ENCODING 213
SWIDTH 840 0
DWIDTH 13 0
BBX 11 15 1 0
BITMAP
0EE0
0CC0
1980
0000
0F00
3FC0
70C0
6060
C060
C060
C060
C0C0
61C0
7F80
1E00
ENDCHAR

STARTCHAR Odieresis
ENCODING 214
SWIDTH 840 0
DWIDTH 13 0
BBX 11 14 1 0
BITMAP
1980
1980
0000
0F00
3FC0
70C0
6060
C060
C060
C060
C0C0
61C0
7F80
1E00
ENDCHAR

STARTCHAR multiply
ENCODING 215
SWIDTH 600 0
DWIDTH 9 0
BBX 7 7 1 2
BITMAP
44
EE
7C
38
7C
EE
44
ENDCHAR

STARTCHAR Rcaron
ENCODING 216
SWIDTH 580 0
DWIDTH 9 0
BBX 9 15 0 0
BITMAP
1980
0F00
0600
0000
3F00
3F80
3180
6180
7F00
7E00
6C00
6C00
C600
C600
C300
ENDCHAR

STARTCHAR Uring
ENCODING 217
SWIDTH 640 0
DWIDTH 10 0
BBX 10 15 0 0
BITMAP
0300
0480
0480
0300
30C0
30C0
30C0
6180
6180
6180
6180
C300
C700
FE00
7C00
ENDCHAR

STARTCHAR Uacute
ENCODING 218
SWIDTH 640 0
DWIDTH 10 0
BBX 10 15 0 0
BITMAP
0380
0300
0600
0000
30C0
30C0
30C0
6180
6180
6180
6180
C300
C700
FE00
7C00
ENDCHAR

STARTCHAR Uhungarumlaut
ENCODING 219
SWIDTH 640 0
DWIDTH 10 0
BBX 12 15 0 0
BITMAP
0770
0660
0CC0
0000
30C0
30C0
30C0
6180
6180
6180
6180
C300
C700
FE00
7C00
ENDCHAR

STARTCHAR Udieresis
ENCODING 220
SWIDTH 640 0
DWIDTH 10 0
BBX 10 14 0 0
BITMAP
0CC0
0CC0
0000
30C0
30C0
30C0
6180
6180
6180
6180
C300
C700
FE00
7C00
ENDCHAR

STARTCHAR Yacute
ENCODING 221
SWIDTH 620 0
DWIDTH 9 0
BBX 9 15 1 0
BITMAP
0E00
0C00
1800
0000
C180
C300
C600
6C00
7C00
3800
3000
3000
6000
6000
6000
ENDCHAR

STARTCHAR Tcommaaccent
ENCODING 222
SWIDTH 420 0
DWIDTH 6 0
BBX 7 14 0 -3
BITMAP
7E
7E
18
18
18
30
30
30
60
60
60
00
60
C0
ENDCHAR

STARTCHAR germandbls
ENCODING 223
SWIDTH 600 0
DWIDTH 9 0
BBX 9 12 0 0
BITMAP
0F00
1F80
3980
3180
3700
6600
6300
6180
6180
C380
CF00
CE00
ENDCHAR

STARTCHAR racute
ENCODING 224
SWIDTH 320 0
DWIDTH 5 0
BBX 6 12 0 0
BITMAP
1C
18
30
00
68
78
70
60
C0
C0
C0
C0
ENDCHAR

STARTCHAR aacute
ENCODING 225
SWIDTH 660 0
DWIDTH 10 0
BBX 9 12 1 0
BITMAP
0700
0600
0C00
0000
1D80
7F80
6380
C180
C300
E700
7F00
3B00
ENDCHAR

STARTCHAR acircumflex
ENCODING 226
SWIDTH 660 0
DWIDTH 10 0
BBX 9 12 1 0
BITMAP
0600
0F00
1980
0000
1D80
7F80
6380
C180
C300
E700
7F00
3B00
ENDCHAR

STARTCHAR abreve
ENCODING 227
SWIDTH 660 0
DWIDTH 10 0
BBX 9 11 1 0
BITMAP
3300
1E00
0000
1D80
7F80
6380
C180
C300
E700
7F00
3B00
ENDCHAR

STARTCHAR adieresis
ENCODING 228
SWIDTH 660 0
DWIDTH 10 0
BBX 9 11 1 0
BITMAP
3300
3300
0000
1D80
7F80
6380
C180
C300
E700
7F00
3B00
ENDCHAR

STARTCHAR lacute
ENCODING 229
SWIDTH 240 0
DWIDTH 4 0
BBX 5 15 1 0
BITMAP
38
30
60
00
30
30
30
60
60
60
60
60
C0
C0
C0
ENDCHAR

STARTCHAR cacute
ENCODING 230
SWIDTH 640 0
DWIDTH 9 0
BBX 8 12 1 0
BITMAP
07
06
0C
00
1E
7F
63
C0
C0
E6
7E
38
ENDCHAR

STARTCHAR ccedilla
ENCODING 231
SWIDTH 640 0
DWIDTH 9 0
BBX 8 11 1 -3
BITMAP
1E
7F
63
C0
C0
E6
7E
38
18
0C
38
ENDCHAR

STARTCHAR ccaron
ENCODING 232
SWIDTH 640 0
DWIDTH 9 0
BBX 8 12 1 0
BITMAP
33
1E
0C
00
1E
7F
63
C0
C0
E6
7E
38
ENDCHAR

STARTCHAR eacute
ENCODING 233
SWIDTH 640 0
DWIDTH 9 0
BBX 8 12 1 0
BITMAP
0E
0C
18
00
1C
7E
63
FF
C0
E6
7E
3C
ENDCHAR

STARTCHAR eogonek
ENCODING 234
SWIDTH 640 0
DWIDTH 9 0
BBX 8 11 1 -3
BITMAP
1C
7E
63
FF
C0
E6
7E
3C
18
18
0C
ENDCHAR

STARTCHAR edieresis
ENCODING 235
SWIDTH 640 0
DWIDTH 9 0
BBX 8 11 1 0
BITMAP
33
33
00
1C
7E
63
FF
C0
E6
7E
3C
ENDCHAR

STARTCHAR ecaron
ENCODING 236
SWIDTH 640 0
DWIDTH 9 0
BBX 8 12 1 0
BITMAP
66
3C
18
00
1C
7E
63
FF
C0
E6
7E
3C
ENDCHAR

STARTCHAR iacute
ENCODING 237
SWIDTH 240 0
DWIDTH 4 0
BBX 5 12 1 0
BITMAP
38
30
60
00
60
60
60
60
C0
C0
C0
C0
ENDCHAR

STARTCHAR icircumflex
ENCODING 238
SWIDTH 240 0
DWIDTH 4 0
BBX 6 12 1 0
BITMAP
30
78
CC
00
60
60
60
60
C0
C0
C0
C0
ENDCHAR

STARTCHAR dcaron
ENCODING 239
SWIDTH 707 0
DWIDTH 11 0
BBX 13 11 0 0
BITMAP
00D8
00D8
01B0
1D80
7F80
6380
C180
C300
E700
7F00
3B00
ENDCHAR

STARTCHAR dcroat
ENCODING 240
SWIDTH 660 0
DWIDTH 10 0
BBX 11 11 0 0
BITMAP
00C0
07E0
0180
1D80
7F80
6380
C180
C300
E700
7F00
3B00
ENDCHAR

STARTCHAR nacute
ENCODING 241
SWIDTH 600 0
DWIDTH 9 0
BBX 8 12 1 0
BITMAP
0E
0C
18
00
6E
7F
73
63
C6
C6
C6
C6
ENDCHAR

STARTCHAR ncaron
ENCODING 242
SWIDTH 600 0
DWIDTH 9 0
BBX 8 12 1 0
BITMAP
33
1E
0C
00
6E
7F
73
63
C6
C6
C6
C6
ENDCHAR

STARTCHAR oacute
ENCODING 243
SWIDTH 640 0
DWIDTH 9 0
BBX 8 12 1 0
BITMAP
0E
0C
18
00
1C
7E
63
C3
C3
C6
7E
38
ENDCHAR

STARTCHAR ocircumflex
ENCODING 244
SWIDTH 640 0
DWIDTH 9 0
BBX 8 12 1 0
BITMAP
0C
1E
33
00
1C
7E
63
C3
C3
C6
7E
38
ENDCHAR

STARTCHAR ohungarumlaut
ENCODING 245
SWIDTH 640 0
DWIDTH 9 0
BBX 9 12 1 0
BITMAP
3B80
3300
6600
0000
1C00
7E00
6300
C300
C300
C600
7E00
3800
ENDCHAR

STARTCHAR odieresis
ENCODING 246
SWIDTH 640 0
DWIDTH 9 0
BBX 8 11 1 0
BITMAP
33
33
00
1C
7E
63
C3
C3
C6
7E
38
ENDCHAR

STARTCHAR divide
ENCODING 247
SWIDTH 600 0
DWIDTH 9 0
BBX 8 8 1 1
BITMAP
18
18
00
FF
FF
00
18
18
ENDCHAR

STARTCHAR rcaron
ENCODING 248
SWIDTH 320 0
DWIDTH 5 0
BBX 6 12 1 0
BITMAP
CC
78
30
00
68
78
70
60
C0
C0
C0
C0
ENDCHAR

STARTCHAR uring
ENCODING 249
SWIDTH 600 0
DWIDTH 9 0
BBX 8 12 1 0
BITMAP
0C
12
12
0C
63
63
63
C3
C6
C6
FC
78
ENDCHAR

STARTCHAR uacute
ENCODING 250
SWIDTH 600 0
DWIDTH 9 0
BBX 8 12 1 0
BITMAP
07
06
0C
00
63
63
63
C3
C6
C6
FC
78
ENDCHAR

STARTCHAR uhungarumlaut
ENCODING 251
SWIDTH 600 0
DWIDTH 9 0
BBX 10 12 1 0
BITMAP
1DC0
1980
3300
0000
6300
6300
6300
C300
C600
C600
FC00
7800
ENDCHAR

STARTCHAR udieresis
ENCODING 252
SWIDTH 600 0
DWIDTH 9 0
BBX 8 11 1 0
BITMAP
33
33
00
63
63
63
C3
C6
C6
FC
78
ENDCHAR

STARTCHAR yacute
ENCODING 253
SWIDTH 580 0
DWIDTH 9 0
BBX 8 15 1 -3
BITMAP
07
06
0C
00
C3
C3
66
66
6C
3C
30
30
60
60
C0
ENDCHAR

STARTCHAR tcommaaccent
ENCODING 254
SWIDTH 300 0
DWIDTH 5 0
BBX 6 14 0 -3
BITMAP
18
18
18
7C
7C
30
30
60
60
60
60
00
60
C0
ENDCHAR

STARTCHAR dotaccent
ENCODING 255
SWIDTH 280 0
DWIDTH 4 0
BBX 2 2 2 9
BITMAP
C0
C0
ENDCHAR
ENDFONT
